<svg id="visual" viewBox="0 0 900 600" width="900" height="600" xmlns="http://www.w3.org/2000/svg" xmlns:xlink="http://www.w3.org/1999/xlink" version="1.1"><rect x="0" y="0" width="900" height="600" fill="#1C7350"></rect><path d="M0 282L82 282L164 336L245 325L327 315L409 321L491 355L573 353L655 298L736 282L818 298L900 347L900 601L818 601L736 601L655 601L573 601L491 601L409 601L327 601L245 601L164 601L82 601L0 601Z" fill="#3acf94"></path><path d="M0 400L82 351L164 342L245 355L327 343L409 374L491 355L573 397L655 366L736 378L818 393L900 343L900 601L818 601L736 601L655 601L573 601L491 601L409 601L327 601L245 601L164 601L82 601L0 601Z" fill="#30ae7c"></path><path d="M0 441L82 438L164 452L245 443L327 396L409 451L491 427L573 448L655 452L736 425L818 406L900 423L900 601L818 601L736 601L655 601L573 601L491 601L409 601L327 601L245 601L164 601L82 601L0 601Z" fill="#268e65"></path><path d="M0 451L82 490L164 457L245 469L327 481L409 465L491 474L573 463L655 454L736 502L818 501L900 499L900 601L818 601L736 601L655 601L573 601L491 601L409 601L327 601L245 601L164 601L82 601L0 601Z" fill="#1d6f4e"></path><path d="M0 545L82 532L164 540L245 548L327 548L409 520L491 529L573 521L655 530L736 518L818 541L900 535L900 601L818 601L736 601L655 601L573 601L491 601L409 601L327 601L245 601L164 601L82 601L0 601Z" fill="#145239"></path></svg>